<?xml version="1.0" encoding="utf-8"?>
<!-- Generator: Adobe Illustrator 23.1.1, SVG Export Plug-In . SVG Version: 6.00 Build 0)  -->
<svg version="1.1" id="Layer_1" xmlns="http://www.w3.org/2000/svg" xmlns:xlink="http://www.w3.org/1999/xlink" x="0px" y="0px"
	 width="215.8px" height="57.8px" viewBox="0 0 215.8 57.8" style="enable-background:new 0 0 215.8 57.8;" xml:space="preserve">
<style type="text/css">
	.st0{fill:#FFFFFF;}
</style>
<g>
	<polygon class="st0" points="77.3,13.4 69.1,13.4 62,23 55.4,13.4 47,13.4 58.1,28.8 46.1,44.5 54.3,44.5 62,34.5 69.6,44.5 
		78.2,44.5 65.7,28.7 	"/>
	<rect x="35.9" y="13.4" class="st0" width="6.1" height="31.1"/>
	<path class="st0" d="M109.9,29.1c0-1.4-0.2-2.9-0.6-4.3c-1.9-7-9.1-12-16.1-11.3c-8.1,0.8-14,6.8-14.4,14.6c0,0.3,0,0.6,0,0.8
		c-0.1,8.6,6.9,15.6,15.5,15.7c4.8,0,9.6,0,14.5,0.1h1.2c0-0.4,0-0.6,0-0.8C110,39,110,34,109.9,29.1z M103.8,38.5h-0.6
		c0,0-6.3,0.1-9.5-0.1c-5.3-0.3-9-4.8-8.7-10.2c0.3-4.9,4.8-8.8,9.9-8.6c5,0.2,8.9,4.2,9,9.2C103.8,32,103.8,38.5,103.8,38.5z"/>
	<path class="st0" d="M179.4,29.1c0-1.4-0.2-2.9-0.6-4.3c-1.9-7-9.1-12-16.1-11.3c-8.1,0.8-14,6.8-14.4,14.6c0,0.3,0,0.6,0,0.8
		c-0.1,8.6,6.9,15.6,15.5,15.7c4.8,0,9.6,0,14.5,0.1h1.2c0-0.4,0-0.6,0-0.8C179.4,39,179.4,34,179.4,29.1z M173.2,38.5h-0.6
		c0,0-6.3,0.1-9.5-0.1c-5.3-0.3-9-4.8-8.7-10.2c0.3-4.9,4.8-8.8,9.9-8.6c5,0.2,8.9,4.2,9,9.2C173.3,32,173.2,38.5,173.2,38.5z"/>
	<path class="st0" d="M133.6,14.1c-1.4-0.4-2.8-0.6-4.3-0.6c-3.1,0-6.3,0-9.4,0c0,0-0.1-12.7-0.1-12.7l-6.1,0v13.9
		c0,4.8,0,9.6,0.1,14.5c0.1,8.6,7.1,15.5,15.7,15.5c0.3,0,0.6,0,0.8,0c7.8-0.4,13.8-6.3,14.6-14.4C145.6,23.2,140.7,16,133.6,14.1z
		 M130.2,38.5c-5.5,0.3-10-3.4-10.2-8.7c-0.2-3.2-0.1-6.3-0.1-9.5c0-0.2,0-0.6,0-0.6s6.5,0,9.6,0c5,0.1,9,4,9.2,9
		C139,33.7,135.1,38.2,130.2,38.5z"/>
	<path class="st0" d="M208.5,13.4c0,0,0,13.2,0,13.2c0,1,0,1.9-0.1,2.8c-0.1,0.9-0.3,1.8-0.6,2.7c-0.3,1-0.8,2-1.4,2.8
		c-0.6,0.9-1.5,1.7-2.5,2.3c-1.2,0.7-2.5,1.1-3.9,1.2c-0.4,0-0.8,0.1-1.1,0.1c-9.6,0-9.6-10-9.5-11.6V13.4h-6.1v13.3
		c0,0-1,17.9,15.5,17.9c4.2,0,7.3-1.3,9.6-3.2v0.2l0,0c0,2-0.7,3.9-1.9,5.5c-1.7,2.3-4.1,3.6-7,3.7c-1.2,0-2.4,0-3.6,0V57
		c1.3,0,2.5,0,3.7,0c5-0.2,9.7-2.9,12.4-7.1c0.7-1.1,1.3-2.4,1.7-3.7c0.4-1.4,0.7-2.9,0.7-4.3c0-3.4,0.1-28.4,0.1-28.4H208.5z"/>
	<path class="st0" d="M17.7,13.5c-7-0.8-14.2,4.2-16.1,11.3C1.2,26.2,1,27.6,1,29.1C1,33.1,1,40.4,1,43c0,0.6,0,1.7,0,1.7h0
		c0,3.9,0,8.4,0.1,12.2c2.1,0,4.2,0,6.3,0c0-3.8,0-8.4,0-12.3c3.1,0,6.2,0,9.4-0.1c8.6-0.1,15.5-7.1,15.5-15.7c0-0.3,0-0.6,0-0.8
		C31.7,20.3,25.8,14.3,17.7,13.5z M17.3,38.4c-3.2,0.2-9.5,0.1-9.5,0.1H7.1c0,0,0-6.5,0-9.6c0.1-5,4-9,9-9.2c5-0.3,9.6,3.7,9.9,8.6
		C26.3,33.7,22.6,38.2,17.3,38.4z"/>
</g>
</svg>
